<svg width="25" height="25" viewBox="0 0 25 25" fill="none" xmlns="http://www.w3.org/2000/svg">
<path d="M21.9197 24.7064H3.48251C1.9382 24.7064 0.693298 23.4623 0.693298 21.919V3.49376C0.693298 1.95045 1.9382 0.70636 3.48251 0.70636H21.9039C23.4482 0.70636 24.6932 1.95045 24.6932 3.49376V21.9032C24.7089 23.4623 23.464 24.7064 21.9197 24.7064Z" fill="#0A302A" stroke="#21CC33" stroke-width="0.383541" stroke-miterlimit="10"/>
<path d="M8.25733 8.12367H8.22581L6.79181 6.91107H4.12866L4.16018 7.02131L7.72155 17.5725L9.15555 18.7851H11.8187L8.25733 8.12367Z" fill="#21CC33"/>
<path d="M13.5521 8.12367H13.5206L12.0865 6.91107H9.4234L9.45492 7.02131L13.032 17.5725L14.4503 18.7851H17.1292L13.5521 8.12367Z" fill="#21CC33"/>
<path d="M21.2737 15.4623C21.2737 15.4623 21.2737 15.4937 21.2579 15.541C21.2579 15.5567 21.2579 15.5725 21.2422 15.604C21.2422 15.6197 21.2422 15.6197 21.2422 15.6355L21.2264 15.6985C21.1161 16.3599 20.7852 18.2339 20.6906 18.6591L19.9815 16.5489C20.1234 16.4386 20.2021 16.2654 20.2021 16.0607C20.2021 15.73 19.95 15.4465 19.6506 15.4465C19.3512 15.4465 19.0991 15.7142 19.0991 16.0607C19.0991 16.3914 19.3512 16.6749 19.6506 16.6749H19.6664L20.3912 18.8166C20.1233 18.6119 18.4372 17.1158 18.1063 16.8323C18.0748 16.8008 18.0433 16.7851 18.0433 16.7851C18.0275 16.7693 18.0117 16.7536 18.0117 16.7378L17.996 16.7063V16.6906L17.7754 14.5489C17.3657 14.7536 17.1135 14.0449 17.1135 14.0449L14.7498 7.02131L14.7183 6.91107H17.3814L18.7997 8.12367L18.8312 8.13942L20.2179 12.2811L20.4858 13.0686C20.5488 13.2575 20.6119 13.4623 20.1391 13.7457L21.2422 15.3678C21.2579 15.3835 21.2579 15.3993 21.2579 15.3993C21.2737 15.415 21.2895 15.4465 21.2737 15.4623Z" fill="#21CC33"/>
</svg>
