<svg width="98" height="93" viewBox="0 0 98 93" fill="none" xmlns="http://www.w3.org/2000/svg">
<path d="M17.1692 17.3919C18.2072 17.0533 18.7752 15.9343 18.4378 14.8925C18.1004 13.8508 16.9854 13.2807 15.9474 13.6193C14.9094 13.9579 14.3414 15.0769 14.6788 16.1187C15.0162 17.1605 16.1312 17.7305 17.1692 17.3919Z" fill="#EAEEF9"/>
<path d="M26.1143 3.65726C26.8202 3.42701 27.2064 2.66609 26.977 1.95768C26.7475 1.24928 25.9893 0.861653 25.2835 1.0919C24.5776 1.32214 24.1914 2.08306 24.4208 2.79147C24.6502 3.49987 25.4084 3.8875 26.1143 3.65726Z" fill="#FFD166"/>
<path d="M1.8786 51.4505C2.62083 51.4505 3.22253 50.8466 3.22253 50.1017C3.22253 49.3568 2.62083 48.7529 1.8786 48.7529C1.13637 48.7529 0.534668 49.3568 0.534668 50.1017C0.534668 50.8466 1.13637 51.4505 1.8786 51.4505Z" fill="#AFC7FF"/>
<path d="M95.2868 34.724C96.5115 33.6007 96.5971 31.6937 95.4779 30.4645C94.3586 29.2353 92.4585 29.1495 91.2337 30.2728C90.009 31.396 89.9234 33.3031 91.0427 34.5323C92.1619 35.7614 94.0621 35.8473 95.2868 34.724Z" fill="#EAEEF9"/>
<path d="M94.6887 21.5398C95.3873 21.5398 95.9536 20.9715 95.9536 20.2704C95.9536 19.5693 95.3873 19.001 94.6887 19.001C93.9901 19.001 93.4238 19.5693 93.4238 20.2704C93.4238 20.9715 93.9901 21.5398 94.6887 21.5398Z" fill="#FFC3AF"/>
<path d="M9.31006 81.2031H90.7364" stroke="#EBF0F6" stroke-width="2" stroke-miterlimit="10" stroke-linecap="round" stroke-linejoin="round"/>
<path d="M59.2725 10.6697H51.6833C51.6833 10.511 51.7623 10.4317 51.7623 10.273C51.7623 8.76553 50.4974 7.49609 48.9954 7.49609C47.4934 7.49609 46.2285 8.76553 46.2285 10.273C46.2285 10.4317 46.2285 10.5903 46.3075 10.6697H38.7183C38.323 10.6697 37.9277 10.987 37.9277 11.4631V13.9226C37.9277 15.7474 39.4298 17.2549 41.248 17.2549H56.7428C58.561 17.2549 60.0631 15.7474 60.0631 13.9226V11.4631C60.0631 10.987 59.6678 10.6697 59.2725 10.6697Z" fill="#1C3754"/>
<path d="M58.7979 10.1941H51.2086C51.2086 10.0354 51.2877 9.95608 51.2877 9.7974C51.2877 8.28994 50.0228 7.02051 48.5208 7.02051C47.0187 7.02051 45.7539 8.28994 45.7539 9.7974C45.7539 9.95608 45.7539 10.1148 45.8329 10.1941H38.2437C37.8484 10.1941 37.4531 10.5115 37.4531 10.9875V13.447C37.4531 15.2718 38.9552 16.7793 40.7734 16.7793H56.2681C58.0864 16.7793 59.5884 15.2718 59.5884 13.447V10.9875C59.5884 10.5115 59.1932 10.1941 58.7979 10.1941Z" fill="#2D5887"/>
<path d="M48.5212 11.0672C49.2198 11.0672 49.7861 10.4988 49.7861 9.79776C49.7861 9.09667 49.2198 8.52832 48.5212 8.52832C47.8227 8.52832 47.2563 9.09667 47.2563 9.79776C47.2563 10.4988 47.8227 11.0672 48.5212 11.0672Z" fill="#EAEEF9"/>
<path d="M88.3099 46.2148C88.3099 55.1802 85.3058 63.4315 80.3253 70.096C77.5584 73.6663 74.2381 76.8399 70.4435 79.2994C64.2772 83.3458 56.9251 85.7259 49.0197 85.7259C27.2796 85.7259 9.72949 68.0332 9.72949 46.2941C9.72949 24.4757 27.3587 6.8623 49.0197 6.8623C56.9251 6.8623 64.2772 9.2425 70.4435 13.2095C74.2381 15.669 77.5584 18.8426 80.3253 22.4129C85.3848 28.9981 88.3099 37.2494 88.3099 46.2148Z" fill="#EAEEF9"/>
<path d="M76.0561 12.9713V78.7439C76.0561 79.934 75.1074 80.9654 73.8425 80.9654H25.382C24.1962 80.9654 23.1685 80.0133 23.1685 78.7439V12.9713C23.1685 11.7812 24.1962 10.8291 25.382 10.8291H73.9216C75.1074 10.8291 76.0561 11.7812 76.0561 12.9713Z" fill="#CED7E2"/>
<path d="M76.0561 17.7313V78.7435C76.0561 79.9336 75.1074 80.965 73.8426 80.965H29.5719L25.6982 77.0773L69.7317 16.6205L73.5263 15.1924L76.0561 17.7313Z" fill="#BCC4CF"/>
<path d="M74.08 16.2236H26.0938V77.3152C26.0938 77.7912 26.489 78.1086 26.8843 78.1086H74.08V16.2236Z" fill="#A6AFBA"/>
<path d="M72.8939 15.1133H26.4097C26.0145 15.1133 25.6982 15.4306 25.6982 15.8273V76.2048C25.6982 76.6015 26.0145 76.9189 26.4097 76.9189H72.8939C73.2892 76.9189 73.6054 76.6015 73.6054 76.2048V15.9067C73.6844 15.51 73.3682 15.1133 72.8939 15.1133Z" fill="#E3EAF2"/>
<g filter="url(#filter0_d_407_32075)">
<path d="M73.6057 15.1924C73.6057 15.1924 73.5266 18.842 72.4198 41.9299C72.4198 42.0885 72.4198 42.2472 72.4198 42.4059C71.0759 65.097 50.917 69.8574 48.4663 70.0954C47.3595 70.1748 45.225 70.3335 41.3513 70.4128C36.6081 70.5715 29.335 70.6508 18.0302 70.8095C17.6349 70.8095 17.3978 70.4128 17.5559 70.0954C25.4613 54.3068 25.5404 15.2717 25.5404 15.2717H73.6057V15.1924Z" fill="white"/>
</g>
<path d="M64.9884 26.8554H33.6037C33.3666 26.8554 33.1294 26.6174 33.1294 26.3794C33.1294 26.1413 33.3666 25.9033 33.6037 25.9033H64.9884C65.2256 25.9033 65.4628 26.1413 65.4628 26.3794C65.4628 26.6174 65.2256 26.8554 64.9884 26.8554Z" fill="#CED7E2"/>
<path d="M64.8307 29.7118H52.34C52.1029 29.7118 51.8657 29.4738 51.8657 29.2358C51.8657 28.9978 52.1029 28.7598 52.34 28.7598H64.8307C65.0679 28.7598 65.305 28.9978 65.305 29.2358C65.305 29.4738 65.0679 29.7118 64.8307 29.7118Z" fill="#CED7E2"/>
<path d="M48.8616 29.7118H33.3669C33.1297 29.7118 32.8926 29.4738 32.8926 29.2358C32.8926 28.9978 33.1297 28.7598 33.3669 28.7598H48.8616C49.0988 28.7598 49.336 28.9978 49.336 29.2358C49.336 29.4738 49.1778 29.7118 48.8616 29.7118Z" fill="#E3EAF2"/>
<path d="M44.1183 32.4882H33.2087C32.9715 32.4882 32.7344 32.2502 32.7344 32.0122C32.7344 31.7742 32.9715 31.5361 33.2087 31.5361H44.1973C44.4345 31.5361 44.6716 31.7742 44.6716 32.0122C44.6716 32.2502 44.4345 32.4882 44.1183 32.4882Z" fill="#CED7E2"/>
<path d="M63.9611 39.5507H46.5691C46.3319 39.5507 46.0947 39.3127 46.0947 39.0747C46.0947 38.8367 46.3319 38.5986 46.5691 38.5986H63.9611C64.1983 38.5986 64.4354 38.8367 64.4354 39.0747C64.4354 39.3127 64.1983 39.5507 63.9611 39.5507Z" fill="#CED7E2"/>
<path d="M43.0117 39.5507H32.7346C32.4974 39.5507 32.2603 39.3127 32.2603 39.0747C32.2603 38.8367 32.4974 38.5986 32.7346 38.5986H43.0117C43.2489 38.5986 43.486 38.8367 43.486 39.0747C43.486 39.3127 43.2489 39.5507 43.0117 39.5507Z" fill="#E3EAF2"/>
<path d="M63.803 42.3271H56.4509C56.2137 42.3271 55.9766 42.0891 55.9766 41.851C55.9766 41.613 56.2137 41.375 56.4509 41.375H63.803C64.0401 41.375 64.2773 41.613 64.2773 41.851C64.2773 42.0891 64.0401 42.3271 63.803 42.3271Z" fill="#CED7E2"/>
<path d="M52.419 42.3271H32.3391C32.1019 42.3271 31.8647 42.0891 31.8647 41.851C31.8647 41.613 32.1019 41.375 32.3391 41.375H52.419C52.6561 41.375 52.8933 41.613 52.8933 41.851C52.8933 42.0891 52.6561 42.3271 52.419 42.3271Z" fill="#E3EAF2"/>
<path d="M50.8381 45.1835H31.9441C31.7069 45.1835 31.4697 44.9455 31.4697 44.7075C31.4697 44.4695 31.7069 44.2314 31.9441 44.2314H50.8381C51.0753 44.2314 51.3125 44.4695 51.3125 44.7075C51.3125 44.9455 51.0753 45.1835 50.8381 45.1835Z" fill="#E3EAF2"/>
<path d="M62.1428 52.4032H41.5886C41.3514 52.4032 41.1143 52.1652 41.1143 51.9272C41.1143 51.6892 41.3514 51.4512 41.5886 51.4512H62.1428C62.38 51.4512 62.6171 51.6892 62.6171 51.9272C62.6171 52.1652 62.38 52.4032 62.1428 52.4032Z" fill="#E3EAF2"/>
<path d="M38.3477 52.4032H30.6794C30.4422 52.4032 30.2051 52.1652 30.2051 51.9272C30.2051 51.6892 30.4422 51.4512 30.6794 51.4512H38.3477C38.5849 51.4512 38.822 51.6892 38.822 51.9272C38.822 52.1652 38.6639 52.4032 38.3477 52.4032Z" fill="#CED7E2"/>
<path d="M61.9059 55.2597H46.8855C46.6483 55.2597 46.4111 55.0217 46.4111 54.7837C46.4111 54.5456 46.6483 54.3076 46.8855 54.3076H61.9849C62.2221 54.3076 62.4592 54.5456 62.4592 54.7837C62.4592 55.0217 62.2221 55.2597 61.9059 55.2597Z" fill="#CED7E2"/>
<path d="M44.0395 55.2597H30.363C30.1258 55.2597 29.8887 55.0217 29.8887 54.7837C29.8887 54.5456 30.1258 54.3076 30.363 54.3076H44.0395C44.2766 54.3076 44.5138 54.5456 44.5138 54.7837C44.5138 55.0217 44.2766 55.2597 44.0395 55.2597Z" fill="#E3EAF2"/>
<path d="M39.2958 58.037H29.7302C29.493 58.037 29.2559 57.799 29.2559 57.561C29.2559 57.323 29.493 57.085 29.7302 57.085H39.2958C39.533 57.085 39.7701 57.323 39.7701 57.561C39.7701 57.799 39.533 58.037 39.2958 58.037Z" fill="#E3EAF2"/>
<path d="M72.341 42.4062C70.997 65.0974 50.8381 69.8578 48.3874 70.0958C47.2806 70.1751 45.1461 70.3338 41.2725 70.4132C51.3124 65.7321 56.7672 57.4014 56.6091 50.8956C61.5105 51.213 69.8903 50.8163 72.341 42.4062Z" fill="#EAEEF9"/>
<g filter="url(#filter1_d_407_32075)">
<path d="M86.9776 66.7743C86.8986 67.3297 86.8195 67.8851 86.7404 68.4405C86.7404 68.5198 86.6613 68.599 86.6613 68.6784C86.6613 68.7577 86.5823 68.837 86.5823 68.9957C86.3452 70.1064 85.9498 71.1377 85.4755 72.0898C84.0525 74.7874 81.918 76.9298 79.3092 78.2786C78.9929 78.4372 78.6768 78.596 78.3605 78.7547C77.57 79.072 76.8585 79.31 75.9889 79.4686C75.7517 79.548 75.5936 79.5478 75.3564 79.6271C73.6172 79.9445 71.7991 79.9448 69.9809 79.5481C62.3126 77.9613 57.411 70.4238 58.9921 62.7279C60.5732 55.0319 68.0834 50.113 75.7517 51.6998C78.4396 52.2551 80.9693 53.6038 82.8666 55.5873C85.8707 58.5229 87.2938 62.6486 86.9776 66.7743Z" fill="url(#paint0_linear_407_32075)"/>
</g>
<path d="M84.5302 70.8366L77.2816 63.5643L74.8314 62.6424L72.177 61.6182L68.0933 65.3056L72.3812 69.6075L71.7686 72.5779L77.2816 78.109L84.5302 70.8366Z" fill="url(#paint1_linear_407_32075)"/>
<path d="M73.5039 59.7752L77.2813 63.565C77.7918 64.0771 77.7918 64.7941 77.2813 65.3062C76.7709 65.8184 76.0562 65.8184 75.5457 65.3062L73.8102 63.565V71.7592C73.8102 72.3737 73.2997 72.9883 72.5851 72.9883C71.9725 72.9883 71.36 72.4762 71.36 71.7592V63.565L69.6244 65.3062C69.1139 65.8184 68.3993 65.8184 67.8888 65.3062C67.6846 65.1014 67.5825 64.7941 67.5825 64.4868C67.5825 64.1795 67.6846 63.8723 67.8888 63.6674L71.6662 59.8776C71.8704 59.6727 72.1767 59.5703 72.483 59.5703C72.7892 59.5703 73.2997 59.5703 73.5039 59.7752Z" fill="url(#paint2_linear_407_32075)"/>
<defs>
<filter id="filter0_d_407_32075" x="13.5063" y="15.1924" width="64.0991" height="64.6172" filterUnits="userSpaceOnUse" color-interpolation-filters="sRGB">
<feFlood flood-opacity="0" result="BackgroundImageFix"/>
<feColorMatrix in="SourceAlpha" type="matrix" values="0 0 0 0 0 0 0 0 0 0 0 0 0 0 0 0 0 0 127 0" result="hardAlpha"/>
<feOffset dy="5"/>
<feGaussianBlur stdDeviation="2"/>
<feColorMatrix type="matrix" values="0 0 0 0 0.397708 0 0 0 0 0.47749 0 0 0 0 0.575 0 0 0 0.18 0"/>
<feBlend mode="normal" in2="BackgroundImageFix" result="effect1_dropShadow_407_32075"/>
<feBlend mode="normal" in="SourceGraphic" in2="effect1_dropShadow_407_32075" result="shape"/>
</filter>
<filter id="filter1_d_407_32075" x="50.6958" y="48.4023" width="44.3252" height="44.4536" filterUnits="userSpaceOnUse" color-interpolation-filters="sRGB">
<feFlood flood-opacity="0" result="BackgroundImageFix"/>
<feColorMatrix in="SourceAlpha" type="matrix" values="0 0 0 0 0 0 0 0 0 0 0 0 0 0 0 0 0 0 127 0" result="hardAlpha"/>
<feOffset dy="5"/>
<feGaussianBlur stdDeviation="4"/>
<feColorMatrix type="matrix" values="0 0 0 0 0.1125 0 0 0 0 0.295916 0 0 0 0 1 0 0 0 0.22 0"/>
<feBlend mode="normal" in2="BackgroundImageFix" result="effect1_dropShadow_407_32075"/>
<feBlend mode="normal" in="SourceGraphic" in2="effect1_dropShadow_407_32075" result="shape"/>
</filter>
<linearGradient id="paint0_linear_407_32075" x1="58.6325" y1="65.6137" x2="87.0196" y2="65.6137" gradientUnits="userSpaceOnUse">
<stop stop-color="#83A6FF"/>
<stop offset="1" stop-color="#5A78FF"/>
</linearGradient>
<linearGradient id="paint1_linear_407_32075" x1="72.66" y1="66.2053" x2="79.9974" y2="73.5187" gradientUnits="userSpaceOnUse">
<stop stop-color="#4F6AFF"/>
<stop offset="1" stop-color="#657EFF" stop-opacity="0"/>
</linearGradient>
<linearGradient id="paint2_linear_407_32075" x1="77.4177" y1="70.9706" x2="70.5359" y2="64.1111" gradientUnits="userSpaceOnUse">
<stop offset="0.0113208" stop-color="#C2D1FF"/>
<stop offset="1" stop-color="white"/>
</linearGradient>
</defs>
</svg>
