<svg width="100" height="100" viewBox="0 0 20 20" fill="none" xmlns="http://www.w3.org/2000/svg">
            <path d="M8.41667 4.1665V4.99984M10.9167 4.1665V4.99984M3 9.1665C3 8.94549 3.0878 8.73353 3.24408 8.57725C3.40036 8.42097 3.61232 8.33317 3.83333 8.33317H15.5C15.721 8.33317 15.933 8.42097 16.0893 8.57725C16.2455 8.73353 16.3333 8.94549 16.3333 9.1665V17.4998C16.3333 17.7209 16.2455 17.9328 16.0893 18.0891C15.933 18.2454 15.721 18.3332 15.5 18.3332H3.83333C3.61232 18.3332 3.40036 18.2454 3.24408 18.0891C3.0878 17.9328 3 17.7209 3 17.4998V9.1665ZM5.91667 1.6665H13.4167V8.33317H5.91667V1.6665Z" stroke="black" stroke-linecap="round" stroke-linejoin="round"/>
            <path d="M9.62268 14.4448L12.8598 11.2441C12.9761 11.129 13.1143 11.0376 13.2664 10.9753C13.4185 10.913 13.5815 10.8809 13.7462 10.8809C13.9108 10.8809 14.0738 10.9129 14.2259 10.9752C14.378 11.0374 14.5162 11.1287 14.6327 11.2438C14.7491 11.3589 14.8415 11.4955 14.9045 11.6459C14.9675 11.7963 15 11.9575 15 12.1203C15 12.283 14.9676 12.4442 14.9046 12.5946C14.8417 12.745 14.7493 12.8817 14.633 12.9968L11.3953 16.1975C11.2067 16.3842 10.9703 16.5168 10.7114 16.5809L9.7077 16.8287C9.6807 16.8357 9.65319 16.8406 9.62543 16.8434C9.30183 16.954 7.99154 17.1547 7.52644 16.7957C7.21161 16.5527 7.27414 16.0722 7.40687 15.8097C7.42881 15.7674 7.3959 15.7121 7.34928 15.7197C6.98729 15.7756 6.66753 15.9638 6.34723 16.153C5.91777 16.4068 5.48613 16.6606 4.94918 16.595C4.41223 16.5288 4.14403 16.2013 4.0113 15.9144C3.957 15.7973 4.11002 15.6969 4.2241 15.7588C4.48133 15.8971 4.83071 16.0278 5.11866 15.9648C5.32433 15.9193 5.61447 15.7165 5.93917 15.4892C6.52383 15.0809 7.22094 14.5928 7.74473 14.8016C8.20544 14.9844 8.54549 15.4253 8.30965 15.9475C8.28113 16.0115 8.30965 16.0907 8.37931 16.1064C8.61131 16.159 8.80601 16.1422 9.00072 16.0494L9.23547 15.121C9.30019 14.8651 9.43401 14.6313 9.62268 14.4448Z" fill="black"/>
</svg>